<svg viewBox="0 0 32 32" fill="none" xmlns="http://www.w3.org/2000/svg" style="background: transparent;">
  <!-- Background Circle - Dark Green (Pittmetro Brand Color) -->
  <circle cx="16" cy="16" r="15.5" fill="#0d7377" stroke="#0d7377" stroke-width="1"/>
  
  <!-- Simplified House Icon - Centered and Optimized for Small Size -->
  <g id="house-icon" transform="translate(16, 16)">
    <!-- Chimney -->
    <rect x="-1" y="-6" width="0.8" height="2" fill="white" stroke="white" stroke-width="0.1"/>
    
    <!-- Roof (Gabled) -->
    <path d="M0 -5 L-3 -2 L3 -2 Z" fill="white" stroke="white" stroke-width="0.2"/>
    
    <!-- House Body -->
    <rect x="-3" y="-2" width="6" height="4" fill="white" stroke="white" stroke-width="0.2"/>
    
    <!-- Door -->
    <rect x="-0.8" y="0.5" width="1.6" height="2" fill="#0d7377" stroke="#0d7377" stroke-width="0.1"/>
    <circle cx="0" cy="1.5" r="0.15" fill="white"/>
    
    <!-- Windows Left -->
    <rect x="-2.2" y="-1" width="1" height="1" fill="white" stroke="#0d7377" stroke-width="0.1"/>
    <line x1="-1.7" y1="-1" x2="-1.7" y2="0" stroke="#0d7377" stroke-width="0.08"/>
    <line x1="-2.2" y1="-0.5" x2="-1.2" y2="-0.5" stroke="#0d7377" stroke-width="0.08"/>
    
    <!-- Windows Right -->
    <rect x="1.2" y="-1" width="1" height="1" fill="white" stroke="#0d7377" stroke-width="0.1"/>
    <line x1="1.7" y1="-1" x2="1.7" y2="0" stroke="#0d7377" stroke-width="0.08"/>
    <line x1="1.2" y1="-0.5" x2="2.2" y2="-0.5" stroke="#0d7377" stroke-width="0.08"/>
    
    <!-- Second Floor Window (Gabled) -->
    <path d="M0 -2 L-0.8 0 L0.8 0 Z" fill="white" stroke="#0d7377" stroke-width="0.1"/>
    <line x1="0" y1="-2" x2="0" y2="0" stroke="#0d7377" stroke-width="0.08"/>
    
    <!-- Grass Base -->
    <path d="M-3 2 L-2 2 L-1.5 1.8 L-1 2 L-0.5 1.8 L0 2 L0.5 1.8 L1 2 L1.5 1.8 L2 2 L3 2" fill="white" stroke="none"/>
    
    <!-- Foliage Left (Simplified) -->
    <path d="M-3.5 0 Q-3.8 -0.5 -3.5 -1 Q-3.2 -1.5 -3 0" fill="white" stroke="white" stroke-width="0.1" opacity="0.8"/>
    
    <!-- Foliage Right (Simplified) -->
    <path d="M3.5 0 Q3.8 -0.5 3.5 -1 Q3.2 -1.5 3 0" fill="white" stroke="white" stroke-width="0.1" opacity="0.8"/>
  </g>
</svg>
